<svg width="40" height="40" viewBox="0 0 40 40" fill="none" xmlns="http://www.w3.org/2000/svg">
<path d="M20.0434 3.33337C11.8883 3.33233 4.93647 9.24668 3.63077 17.2966C2.32508 25.3465 7.0511 33.155 14.7884 35.7317C15.6218 35.8817 15.9201 35.37 15.9201 34.93C15.9201 34.535 15.9068 33.4884 15.9018 32.0967C11.2768 33.0967 10.3001 29.8667 10.3001 29.8667C9.99563 28.8616 9.34107 27.9989 8.45511 27.435C6.95511 26.4034 8.57011 26.4267 8.57011 26.4267C9.6379 26.5731 10.5777 27.2058 11.1151 28.14C11.57 28.9671 12.3364 29.5783 13.2439 29.8377C14.1515 30.0972 15.1251 29.9834 15.9484 29.5217C16.0258 28.6784 16.401 27.8902 17.0068 27.2984C13.3168 26.88 9.43677 25.4534 9.43677 19.0817C9.41629 17.4337 10.0283 15.8405 11.1468 14.63C10.6407 13.1956 10.7003 11.6221 11.3134 10.23C11.3134 10.23 12.7084 9.78171 15.8834 11.9317C18.6065 11.1851 21.4804 11.1851 24.2034 11.9317C27.3801 9.78004 28.7734 10.23 28.7734 10.23C29.3894 11.6215 29.4491 13.196 28.9401 14.63C30.0627 15.8404 30.6742 17.4378 30.6468 19.0884C30.6468 25.4767 26.7634 26.88 23.0601 27.2917C23.859 28.1085 24.2687 29.2289 24.1851 30.3684C24.1851 32.5917 24.1651 34.385 24.1651 34.93C24.1651 35.375 24.4618 35.8917 25.3101 35.7284C33.0442 33.1473 37.7652 25.3383 36.4568 17.2906C35.1484 9.24279 28.1969 3.33151 20.0434 3.33337Z" fill="#1D3557"/>
</svg>
