<svg width="40" height="40" viewBox="0 0 40 40" fill="none" xmlns="http://www.w3.org/2000/svg">
<path d="M33.325 11.1467C34.8191 10.2535 35.937 8.84712 36.47 7.19006C35.0661 8.02307 33.5301 8.60986 31.9284 8.92506C29.7077 6.57594 26.1892 6.00427 23.339 7.52949C20.4888 9.05471 19.0125 12.2992 19.735 15.4501C13.9844 15.1614 8.62664 12.4449 4.99503 7.97673C3.09976 11.2458 4.06828 15.4247 7.20836 17.5267C6.07288 17.4902 4.96257 17.1828 3.97003 16.6301C3.97003 16.6601 3.97003 16.6901 3.97003 16.7201C3.97068 20.1253 6.37065 23.0585 9.70836 23.7334C8.65513 24.0199 7.55037 24.0621 6.47836 23.8567C7.41703 26.7688 10.1009 28.7639 13.16 28.8234C10.6264 30.8119 7.49749 31.8903 4.27669 31.8851C3.70581 31.8859 3.13538 31.853 2.56836 31.7867C5.83901 33.8884 9.64564 35.004 13.5334 35.0001C18.9421 35.0372 24.1401 32.9049 27.9646 29.0801C31.7891 25.2553 33.921 20.0571 33.8834 14.6484C33.8834 14.3384 33.8761 14.0301 33.8617 13.7234C35.2624 12.7111 36.4714 11.457 37.4317 10.0201C36.1267 10.5985 34.7425 10.9783 33.325 11.1467Z" fill="#1D3557"/>
</svg>
